<?xml version="1.0" standalone="no"?><svg xmlns="http://www.w3.org/2000/svg" viewBox="0 0 1440 320"><path fill="#EBDDCC" fill-opacity="1" d="M0,96L26.7,128C53.3,160,107,224,160,240C213.3,256,267,224,320,208C373.3,192,427,192,480,170.7C533.3,149,587,107,640,80C693.3,53,747,43,800,74.7C853.3,107,907,181,960,197.3C1013.3,213,1067,171,1120,128C1173.3,85,1227,43,1280,26.7C1333.3,11,1387,21,1413,26.7L1440,32L1440,0L1413.3,0C1386.7,0,1333,0,1280,0C1226.7,0,1173,0,1120,0C1066.7,0,1013,0,960,0C906.7,0,853,0,800,0C746.7,0,693,0,640,0C586.7,0,533,0,480,0C426.7,0,373,0,320,0C266.7,0,213,0,160,0C106.7,0,53,0,27,0L0,0Z"></path></svg>